<svg width="127" height="126" viewBox="0 0 127 126" fill="none" xmlns="http://www.w3.org/2000/svg">
<g id="BowlFood">
<path id="Vector" d="M110.75 51.1875H106.63C105.641 40.4326 100.669 30.4353 92.6901 23.1566C84.711 15.8778 74.3003 11.8427 63.5 11.8427C52.6997 11.8427 42.289 15.8778 34.3099 23.1566C26.3308 30.4353 21.359 40.4326 20.3696 51.1875H16.25C15.2057 51.1875 14.2042 51.6024 13.4658 52.3408C12.7273 53.0792 12.3125 54.0807 12.3125 55.125C12.3298 64.489 14.9068 73.67 19.7648 81.6753C24.6227 89.6806 31.5768 96.2054 39.875 100.544V102.375C39.875 104.464 40.7047 106.467 42.1815 107.943C43.6584 109.42 45.6614 110.25 47.75 110.25H79.25C81.3386 110.25 83.3416 109.42 84.8185 107.943C86.2953 106.467 87.125 104.464 87.125 102.375V100.544C95.4232 96.2054 102.377 89.6806 107.235 81.6753C112.093 73.67 114.67 64.489 114.688 55.125C114.688 54.0807 114.273 53.0792 113.534 52.3408C112.796 51.6024 111.794 51.1875 110.75 51.1875ZM98.7111 51.1875H73.4028C78.1766 44.0256 85.3988 38.8509 93.7154 36.6335C96.4346 41.0566 98.1407 46.0269 98.7111 51.1875ZM85.8847 27.6757C86.787 28.414 87.6516 29.1933 88.4785 30.0136C77.9967 33.7008 69.3349 41.2788 64.2875 51.1777H49.768C52.2289 44.2793 56.7597 38.309 62.7412 34.0823C68.7227 29.8556 75.8633 27.5786 83.1875 27.5625C84.0882 27.5625 84.9889 27.6068 85.8847 27.6757ZM63.5 19.6875C66.6597 19.6896 69.8049 20.115 72.8516 20.9524C65.4315 22.7931 58.6278 26.5572 53.126 31.8653C47.6243 37.1735 43.6191 43.8381 41.514 51.1875H28.2889C29.2656 42.5293 33.3945 34.5332 39.8883 28.7238C46.3822 22.9144 54.7868 19.6979 63.5 19.6875ZM81.5436 94.5C80.8568 94.8156 80.2753 95.3222 79.8686 95.9593C79.4618 96.5964 79.2471 97.3371 79.25 98.093V102.375H47.75V98.093C47.7529 97.3371 47.5382 96.5964 47.1314 95.9593C46.7247 95.3222 46.1432 94.8156 45.4564 94.5C38.5319 91.3136 32.5674 86.3618 28.1615 80.1417C23.7555 73.9216 21.0633 66.652 20.3548 59.0625H106.63C105.923 66.6504 103.233 73.919 98.8301 80.139C94.4269 86.359 88.4653 91.3116 81.5436 94.5Z" fill="#417F56"/>
</g>
</svg>
