<svg width="111" height="100" viewBox="0 0 111 100" fill="none" xmlns="http://www.w3.org/2000/svg">
<path id="Vector" d="M16.1595 40.1875H94.8405C96.0193 40.1935 97.1844 39.9348 98.2498 39.4304C99.3152 38.9261 100.254 38.189 100.996 37.2735C101.739 36.3581 102.267 35.2876 102.54 34.141C102.814 32.9944 102.827 31.8011 102.578 30.6489C98.9208 13.3633 79.125 0.8125 55.5 0.8125C31.875 0.8125 12.0792 13.3633 8.42226 30.6489C8.17323 31.8011 8.18603 32.9944 8.45972 34.141C8.73341 35.2876 9.26099 36.3581 10.0036 37.2735C10.7461 38.189 11.6848 38.9261 12.7502 39.4304C13.8156 39.9348 14.9807 40.1935 16.1595 40.1875ZM55.5 8.6875C75.0989 8.6875 92.0252 18.8315 94.8405 32.3125H16.1595L16.125 32.278C18.9748 18.8315 35.9011 8.6875 55.5 8.6875ZM105.339 64.0487L85.0952 71.4316L66.8203 64.0931C65.8819 63.7178 64.8351 63.7178 63.8967 64.0931L45.6858 71.3823L27.4453 64.0931C26.5473 63.7343 25.5487 63.7185 24.6398 64.0487L2.98359 71.9237C2.0683 72.3266 1.3406 73.0627 0.948194 73.9825C0.555787 74.9024 0.528076 75.937 0.870686 76.8765C1.2133 77.8161 1.90056 78.59 2.79297 79.0413C3.68538 79.4926 4.71608 79.5874 5.67586 79.3066L12.1875 76.949V79.5625C12.1875 84.784 14.2617 89.7915 17.9538 93.4837C21.646 97.1758 26.6535 99.25 31.875 99.25H79.125C84.3464 99.25 89.354 97.1758 93.0462 93.4837C96.7383 89.7915 98.8125 84.784 98.8125 79.5625V74.803L108.031 71.4513C108.548 71.3 109.028 71.0442 109.443 70.6999C109.857 70.3555 110.196 69.9298 110.439 69.4492C110.682 68.9685 110.824 68.4431 110.856 67.9055C110.888 67.3678 110.809 66.8293 110.624 66.3233C110.44 65.8173 110.154 65.3545 109.783 64.9636C109.412 64.5727 108.966 64.2619 108.47 64.0506C107.975 63.8392 107.441 63.7317 106.903 63.7348C106.364 63.7379 105.832 63.8514 105.339 64.0684V64.0487ZM90.9375 79.5625C90.9375 82.6954 89.693 85.6999 87.4777 87.9152C85.2624 90.1305 82.2579 91.375 79.125 91.375H31.875C28.7421 91.375 25.7376 90.1305 23.5223 87.9152C21.307 85.6999 20.0625 82.6954 20.0625 79.5625V74.0894L25.9048 71.9631L44.1797 79.282C45.1181 79.6572 46.1649 79.6572 47.1033 79.282L65.3142 71.9927L83.5252 79.282C84.4231 79.6407 85.4218 79.6565 86.3306 79.3263L90.8932 77.6676L90.9375 79.5625ZM0.375 52C0.375 50.9557 0.789842 49.9542 1.52827 49.2158C2.26669 48.4773 3.26821 48.0625 4.3125 48.0625H106.687C107.732 48.0625 108.733 48.4773 109.472 49.2158C110.21 49.9542 110.625 50.9557 110.625 52C110.625 53.0443 110.21 54.0458 109.472 54.7842C108.733 55.5227 107.732 55.9375 106.687 55.9375H4.3125C3.26821 55.9375 2.26669 55.5227 1.52827 54.7842C0.789842 54.0458 0.375 53.0443 0.375 52Z" fill="#417F56"/>
</svg>
