<svg width="127" height="126" viewBox="0 0 127 126" fill="none" xmlns="http://www.w3.org/2000/svg">
<g id="Coffee">
<path id="Vector" d="M39.875 27.5625V11.8125C39.875 10.7682 40.2898 9.76669 41.0283 9.02827C41.7667 8.28984 42.7682 7.875 43.8125 7.875C44.8568 7.875 45.8583 8.28984 46.5967 9.02827C47.3352 9.76669 47.75 10.7682 47.75 11.8125V27.5625C47.75 28.6068 47.3352 29.6083 46.5967 30.3467C45.8583 31.0852 44.8568 31.5 43.8125 31.5C42.7682 31.5 41.7667 31.0852 41.0283 30.3467C40.2898 29.6083 39.875 28.6068 39.875 27.5625ZM59.5625 31.5C60.6068 31.5 61.6083 31.0852 62.3467 30.3467C63.0852 29.6083 63.5 28.6068 63.5 27.5625V11.8125C63.5 10.7682 63.0852 9.76669 62.3467 9.02827C61.6083 8.28984 60.6068 7.875 59.5625 7.875C58.5182 7.875 57.5167 8.28984 56.7783 9.02827C56.0398 9.76669 55.625 10.7682 55.625 11.8125V27.5625C55.625 28.6068 56.0398 29.6083 56.7783 30.3467C57.5167 31.0852 58.5182 31.5 59.5625 31.5ZM75.3125 31.5C76.3568 31.5 77.3583 31.0852 78.0967 30.3467C78.8352 29.6083 79.25 28.6068 79.25 27.5625V11.8125C79.25 10.7682 78.8352 9.76669 78.0967 9.02827C77.3583 8.28984 76.3568 7.875 75.3125 7.875C74.2682 7.875 73.2667 8.28984 72.5283 9.02827C71.7898 9.76669 71.375 10.7682 71.375 11.8125V27.5625C71.375 28.6068 71.7898 29.6083 72.5283 30.3467C73.2667 31.0852 74.2682 31.5 75.3125 31.5ZM122.562 59.0625V63C122.561 68.0082 120.651 72.8276 117.221 76.477C113.791 80.1264 109.099 82.3314 104.101 82.6432C101.415 90.2404 96.8418 97.0303 90.8115 102.375H102.875C103.919 102.375 104.921 102.79 105.659 103.528C106.398 104.267 106.812 105.268 106.812 106.312C106.812 107.357 106.398 108.358 105.659 109.097C104.921 109.835 103.919 110.25 102.875 110.25H16.25C15.2057 110.25 14.2042 109.835 13.4658 109.097C12.7273 108.358 12.3125 107.357 12.3125 106.312C12.3125 105.268 12.7273 104.267 13.4658 103.528C14.2042 102.79 15.2057 102.375 16.25 102.375H28.3283C23.3045 97.9366 19.2794 92.4831 16.5186 86.3744C13.7579 80.2658 12.3243 73.641 12.3125 66.9375V43.3125C12.3125 42.2682 12.7273 41.2667 13.4658 40.5283C14.2042 39.7898 15.2057 39.375 16.25 39.375H102.875C108.096 39.375 113.104 41.4492 116.796 45.1413C120.488 48.8335 122.562 53.841 122.562 59.0625ZM98.9375 47.25H20.1875V66.9375C20.2027 74.3306 22.292 81.571 26.2178 87.8356C30.1436 94.1002 35.7484 99.1376 42.395 102.375H76.73C83.3766 99.1376 88.9814 94.1002 92.9072 87.8356C96.833 81.571 98.9223 74.3306 98.9375 66.9375V47.25ZM114.688 59.0625C114.687 56.6204 113.929 54.2385 112.519 52.2447C111.109 50.2509 109.115 48.7433 106.812 47.9292V66.9375C106.81 69.4101 106.612 71.8787 106.222 74.3203C108.665 73.5985 110.809 72.1063 112.335 70.0662C113.861 68.0261 114.686 65.5475 114.688 63V59.0625Z" fill="#417F56"/>
</g>
</svg>
