<svg width="127" height="126" viewBox="0 0 127 126" fill="none" xmlns="http://www.w3.org/2000/svg">
<g id="Pizza">
<path id="Vector" d="M118.52 31.0078C118.278 29.9998 117.837 29.0501 117.225 28.2136C116.612 27.3772 115.84 26.6707 114.952 26.1352C99.4685 16.7688 81.7175 11.8175 63.6216 11.8175C45.5257 11.8175 27.7747 16.7688 12.2913 26.1352C11.4062 26.672 10.6355 27.3781 10.0235 28.2131C9.41152 29.048 8.97014 29.9955 8.72465 31.0012C8.47917 32.0069 8.43439 33.0512 8.59288 34.0742C8.75137 35.0972 9.11002 36.079 9.6483 36.9633L56.8983 114.37C57.6002 115.527 58.5886 116.484 59.768 117.148C60.9474 117.812 62.278 118.16 63.6314 118.16C64.9849 118.16 66.3155 117.812 67.4949 117.148C68.6743 116.484 69.6626 115.527 70.3645 114.37L117.615 36.9633C118.153 36.0805 118.511 35.0992 118.667 34.0767C118.822 33.0541 118.772 32.0109 118.52 31.0078ZM31.9198 58.3242C33.1992 57.1185 34.7315 56.2136 36.4051 55.6754C38.0787 55.1372 39.8514 54.9794 41.5937 55.2134C43.3361 55.4474 45.0042 56.0674 46.4765 57.0281C47.9488 57.9888 49.188 59.266 50.1039 60.7666C51.0199 62.2671 51.5893 63.9532 51.7707 65.7018C51.9521 67.4504 51.7409 69.2175 51.1526 70.8741C50.5643 72.5307 49.6136 74.0351 48.3699 75.2776C47.1262 76.5201 45.6208 77.4693 43.9636 78.056L31.9198 58.3242ZM75.1929 91.2762C73.2211 89.4169 71.9486 86.9361 71.5889 84.2499C71.2291 81.5637 71.804 78.8355 73.2171 76.5229C74.6301 74.2102 76.7955 72.4539 79.3499 71.5483C81.9043 70.6427 84.6924 70.6431 87.2466 71.5493L75.1929 91.2762ZM91.4006 64.7325C87.0241 62.746 82.0722 62.4291 77.4781 63.8415C72.8841 65.2539 68.9654 68.298 66.4608 72.4C63.9561 76.502 63.0385 81.3786 63.8809 86.1104C64.7233 90.8422 67.2675 95.1025 71.0339 98.088L63.6216 110.25L48.1177 84.8679C50.6631 83.7209 52.9354 82.0456 54.7838 79.9533C56.6322 77.861 58.0145 75.3994 58.8389 72.7321C59.6633 70.0647 59.911 67.2524 59.5655 64.482C59.2199 61.7116 58.2891 59.0464 56.8348 56.6632C55.3805 54.28 53.4359 52.2334 51.1302 50.6592C48.8245 49.085 46.2103 48.0192 43.4611 47.5325C40.712 47.0459 37.8908 47.1495 35.1848 47.8365C32.4787 48.5235 29.9498 49.7782 27.7657 51.5173L24.6403 46.3936C36.3792 39.228 49.8661 35.4369 63.6191 35.4369C77.3722 35.4369 90.8591 39.228 102.598 46.3936L91.4006 64.7325ZM106.708 39.6654C93.7299 31.7502 78.8226 27.5629 63.6216 27.5629C48.4205 27.5629 33.5132 31.7502 20.5355 39.6654L16.3716 32.8634C30.6265 24.2482 46.9655 19.6943 63.6216 19.6943C80.2776 19.6943 96.6167 24.2482 110.872 32.8634L106.708 39.6654Z" fill="white"/>
</g>
</svg>
